<?xml version="1.0" encoding="iso-8859-1"?>
<!-- Generator: Adobe Illustrator 16.0.0, SVG Export Plug-In . SVG Version: 6.00 Build 0)  -->
<!DOCTYPE svg PUBLIC "-//W3C//DTD SVG 1.1//EN" "http://www.w3.org/Graphics/SVG/1.1/DTD/svg11.dtd">
<svg version="1.1" id="Capa_1" xmlns="http://www.w3.org/2000/svg" xmlns:xlink="http://www.w3.org/1999/xlink" x="0px" y="0px"
	 width="483.851px" height="483.852px" viewBox="0 0 483.851 483.852" style="enable-background:new 0 0 483.851 483.852;"
	 xml:space="preserve">
<g>
	<g id="Layer_2_43_">
		<path d="M291.839,245.391c12.658,0,22.918-10.283,22.918-22.917c0-12.646-10.26-22.914-22.918-22.914
			c-12.649,0-22.887,10.268-22.887,22.914C268.953,235.108,279.177,245.391,291.839,245.391z M287.158,213.558
			c6.491,0,11.74,5.269,11.74,11.742c-0.013,6.507-5.249,11.776-11.74,11.776c-6.49,0-11.75-5.27-11.75-11.776
			C275.408,218.827,280.667,213.558,287.158,213.558z"/>
		<path d="M109.142,271.712c12.801,22.571,31.562,43.083,53.377,58.251c24.817,17.253,52.16,26.766,79.352,27.688v0.007
			c0.019-0.001,0.036-0.002,0.055-0.003c0.019,0.001,0.036,0.002,0.055,0.003v-0.007c27.19-0.923,54.534-10.436,79.352-27.688
			c21.815-15.168,40.576-35.68,53.377-58.251c15.757-0.863,38.906-9.312,38.906-51.439c0-22.88-6.79-39.597-19.412-48.577
			c0.191-0.753,0.377-1.511,0.56-2.271c10.939-45.918-7.859-112.282-53.859-140.282s-184-63-218,40
			c-44,14-36.997,71.407-33.743,101.278l0.173-0.002c0.105,0.426,0.206,0.853,0.314,1.276c-12.622,8.98-19.412,25.697-19.412,48.577
			C70.236,262.401,93.385,270.849,109.142,271.712z M126.01,170.088c3.481-6.043,4.584-22.31,5.394-34.758
			c0.213-3.279,4.084-2.896,5.542-0.854c8.25,11.549,30.993,13.396,52.462,10.46c26.221-3.587,68.947-45.876,115.561-15.298
			c17.759,11.649,38.119,25.784,52.339,39.787c3,2.955,7.885,9.438,12.265,13.135c2.834,2.392,6.202,2.921,6.202,2.921
			c14.339,3.528,17.35,20.867,17.35,34.792c0,31.026-14.415,31.026-21.342,31.026c-0.572,0-1.289-0.062-2.118-0.132l-6.967-0.599
			l-3.144,6.104c-19.477,37.797-64.268,78.394-117.627,80.489c-53.36-2.097-98.151-42.692-117.627-80.489l-3.144-6.104l-6.966,0.599
			c-0.83,0.07-1.547,0.132-2.119,0.132c-6.927,0-21.342,0-21.342-31.026c0-13.925,5.273-32.204,17.35-34.792
			C120.155,182.893,121.613,177.723,126.01,170.088z"/>
		<path d="M192.011,245.391c12.663,0,22.887-10.283,22.887-22.917c0-12.646-10.236-22.914-22.887-22.914
			c-12.658,0-22.918,10.268-22.918,22.914C169.093,235.108,179.353,245.391,192.011,245.391z M196.693,213.558
			c6.49,0,11.75,5.269,11.75,11.742c0,6.507-5.26,11.776-11.75,11.776c-6.491,0-11.728-5.27-11.74-11.776
			C184.953,218.827,190.202,213.558,196.693,213.558z"/>
		<path d="M333.423,357.604c-7.12,0-28.477,0.056-33.189,0.067c-0.088-0.004-0.176-0.013-0.264-0.013
			c-0.101,0-0.194,0.011-0.295,0.013c-0.243,0.001-0.386,0.004-0.386,0.004l-0.036,0.02c-3.457,0.229-6.449,2.106-8.218,4.862
			l-0.021,0.011c0,0-0.115,0.201-0.327,0.562c-0.02,0.034-0.039,0.064-0.058,0.099c-3.886,6.62-36.318,61.258-48.831,61.621
			c-12.51-0.363-44.943-55.001-48.829-61.621c-0.019-0.032-0.039-0.063-0.059-0.099c-0.21-0.36-0.327-0.562-0.327-0.562
			l-0.021-0.011c-1.766-2.756-4.764-4.633-8.219-4.862l-0.035-0.02c0,0-0.143-0.003-0.386-0.004
			c-0.098-0.002-0.194-0.013-0.294-0.013c-0.088,0-0.174,0.009-0.262,0.013c-4.716-0.013-26.07-0.067-33.192-0.067
			c-32.14,0-75.178,29.27-75.178,66.567s0,59.68,0,59.68h166.658h0.143h0.143h166.66c0,0,0-22.381,0-59.68
			S365.563,357.604,333.423,357.604z M379.404,449.078c0,3.625-2.878,6.564-6.426,6.564h-64.73c-3.55,0-6.428-2.939-6.428-6.564
			v-3.282c0-3.626,2.878-6.564,6.428-6.564h64.73c3.548,0,6.426,2.938,6.426,6.564V449.078z"/>
	</g>
</g>
<g>
</g>
<g>
</g>
<g>
</g>
<g>
</g>
<g>
</g>
<g>
</g>
<g>
</g>
<g>
</g>
<g>
</g>
<g>
</g>
<g>
</g>
<g>
</g>
<g>
</g>
<g>
</g>
<g>
</g>
</svg>
